<svg xmlns="http://www.w3.org/2000/svg" width="1030" height="988" viewBox="0 0 1030 988">
  <g id="Grupo_1159678" data-name="Grupo 1159678" transform="translate(-285.075 -2622)">
    <rect id="Rectángulo_404561" data-name="Rectángulo 404561" width="1030" height="988" rx="15" transform="translate(285.075 2622)" fill="#f0f6eb"/>
    <path id="Trazado_900330" data-name="Trazado 900330" d="M2125.818-8196.859H2037.26v-454.714h88.557" transform="translate(-1293.925 11358.073)" fill="none" stroke="#12263f" stroke-width="1"/>
    <path id="Trazado_900332" data-name="Trazado 900332" d="M2125.818-8412.859H2037.26v-238.715h88.557" transform="translate(-1293.925 11938.073)" fill="none" stroke="#12263f" stroke-width="1"/>
    <path id="Trazado_900331" data-name="Trazado 900331" d="M2125.818-8169.71H2037.26v-481.862h88.557" transform="translate(-1448.482 11585.072)" fill="none" stroke="#12263f" stroke-width="1"/>
    <g id="Sintesis" transform="translate(781.075 3352)">
      <rect id="Rectángulo_404651" data-name="Rectángulo 404651" width="401" height="103" fill="#d1e6ff"/>
      <text id="Físicas:_Textura_profundidad_del_suelo_densidad_capacidad_de_retención." data-name="Físicas:
Textura, profundidad del suelo, densidad, capacidad de retención." transform="translate(18 18)" fill="#12263f" font-size="16" font-family="SegoeUI-Bold, Segoe UI" font-weight="700"><tspan x="0" y="17">Físicas:</tspan><tspan font-family="SegoeUI, Segoe UI" font-weight="400"><tspan x="0" y="41">Textura, profundidad del suelo, densidad, </tspan><tspan x="0" y="65">capacidad de retención.</tspan></tspan></text>
    </g>
    <g id="Sintesis-2" data-name="Sintesis" transform="translate(781.075 3469)">
      <rect id="Rectángulo_404651-2" data-name="Rectángulo 404651" width="401" height="103" fill="#d1e6ff"/>
      <text id="Biológicas:_Biomasa_microbiana_C_y_N_Respiración_humedad_y_temperatura_N_pot._mineralizable." data-name="Biológicas:
Biomasa microbiana (C y N), Respiración, humedad y temperatura, N pot. mineralizable." transform="translate(18 18)" fill="#12263f" font-size="16" font-family="SegoeUI-Bold, Segoe UI" font-weight="700"><tspan x="0" y="17">Biológicas:</tspan><tspan y="17" font-family="SegoeUI, Segoe UI" font-weight="400"></tspan><tspan font-family="SegoeUI, Segoe UI" font-weight="400"><tspan x="0" y="41">Biomasa microbiana (C y N), Respiración, humedad </tspan><tspan x="0" y="65">y temperatura, N pot. mineralizable.</tspan></tspan></text>
    </g>
    <line id="Línea_567" data-name="Línea 567" x2="66" transform="translate(743.575 3057.5)" fill="none" stroke="#12263f" stroke-width="1"/>
    <line id="Línea_572" data-name="Línea 572" x2="117" transform="translate(692.575 3405.856)" fill="none" stroke="#12263f" stroke-width="1"/>
    <line id="Línea_568" data-name="Línea 568" x2="97" transform="translate(712.575 2941.5)" fill="none" stroke="#12263f" stroke-width="1"/>
    <line id="Línea_569" data-name="Línea 569" x2="66" transform="translate(743.575 2826.5)" fill="none" stroke="#12263f" stroke-width="1"/>
    <g id="Sintesis-3" data-name="Sintesis" transform="translate(781.075 2659)">
      <rect id="Rectángulo_404651-3" data-name="Rectángulo 404651" width="401" height="103" fill="#d1e6ff"/>
      <text id="Variables_In_Situ:_Temperatura_C_conductividad_eléctrica_oxígeno_disuelto_porcentaje_de_saturación_de_oxígeno_pH." data-name="Variables In Situ:  
Temperatura (°C), conductividad eléctrica, oxígeno disuelto, porcentaje de saturación de oxígeno, pH." transform="translate(18 18)" fill="#12263f" font-size="16" font-family="SegoeUI-Bold, Segoe UI" font-weight="700"><tspan x="0" y="17" xml:space="preserve">Variables In Situ:  </tspan><tspan y="17" font-family="SegoeUI, Segoe UI" font-weight="400"></tspan><tspan font-family="SegoeUI, Segoe UI" font-weight="400"><tspan x="0" y="41">Temperatura (°C), conductividad eléctrica, oxígeno </tspan><tspan x="0" y="65">disuelto, porcentaje de saturación de oxígeno, pH.</tspan></tspan></text>
    </g>
    <g id="Sintesis-4" data-name="Sintesis" transform="translate(781.075 2775)">
      <rect id="Rectángulo_404651-4" data-name="Rectángulo 404651" width="401" height="103" fill="#d1e6ff"/>
      <text id="Nutrientes:_Nitratos_nitritos_nitrógeno_amoniacal_nitrógeno_total_nitrógeno_total_NTK_fósforo_total." data-name="Nutrientes:  
Nitratos, nitritos, nitrógeno amoniacal, nitrógeno total, nitrógeno total (NTK), fósforo total." transform="translate(18 18)" fill="#12263f" font-size="16" font-family="SegoeUI-Bold, Segoe UI" font-weight="700"><tspan x="0" y="17" xml:space="preserve">Nutrientes:  </tspan><tspan font-family="SegoeUI, Segoe UI" font-weight="400"><tspan x="0" y="41">Nitratos, nitritos, nitrógeno amoniacal, nitrógeno </tspan><tspan x="0" y="65">total, nitrógeno total (NTK), fósforo total.</tspan></tspan></text>
    </g>
    <g id="Sintesis-5" data-name="Sintesis" transform="translate(781.075 2891)">
      <rect id="Rectángulo_404651-5" data-name="Rectángulo 404651" width="401" height="103" fill="#d1e6ff"/>
      <text id="Variables_Físicas:_Sólidos_suspendidos_totales_sólidos_disueltos_totales_turbidez." data-name="Variables Físicas:
Sólidos suspendidos totales, sólidos disueltos totales, turbidez." transform="translate(18 18)" fill="#12263f" font-size="16" font-family="SegoeUI-Bold, Segoe UI" font-weight="700"><tspan x="0" y="17">Variables Físicas:</tspan><tspan font-family="SegoeUI, Segoe UI" font-weight="400"><tspan x="0" y="41">Sólidos suspendidos totales, sólidos disueltos </tspan><tspan x="0" y="65">totales, turbidez.</tspan></tspan></text>
    </g>
    <g id="Sintesis-6" data-name="Sintesis" transform="translate(781.075 3006)">
      <rect id="Rectángulo_404651-6" data-name="Rectángulo 404651" width="401" height="103" fill="#d1e6ff"/>
      <text id="Materia_orgánica:_Demanda_bioquímica_de_oxígeno_DBO_Demanda_química_de_oxígeno_DQO_._" data-name="Materia orgánica: 
Demanda bioquímica de oxígeno (DBO), Demanda química de oxígeno (DQO). " transform="translate(18 18)" fill="#12263f" font-size="16" font-family="SegoeUI-Bold, Segoe UI" font-weight="700"><tspan x="0" y="17">Materia orgánica: </tspan><tspan y="17" font-family="SegoeUI, Segoe UI" font-weight="400"></tspan><tspan font-family="SegoeUI, Segoe UI" font-weight="400"><tspan x="0" y="41">Demanda bioquímica de oxígeno (DBO), Demanda </tspan><tspan x="0" y="65">química de oxígeno (DQO). </tspan></tspan></text>
    </g>
    <g id="Sintesis-7" data-name="Sintesis" transform="translate(781.075 3122)">
      <rect id="Rectángulo_404651-7" data-name="Rectángulo 404651" width="401" height="79" fill="#d1e6ff"/>
      <text id="Microbiológicos:_Coliformes_fecales_Coliformes_totales." data-name="Microbiológicos: 
Coliformes fecales, Coliformes totales." transform="translate(18 18)" fill="#12263f" font-size="16" font-family="SegoeUI-Bold, Segoe UI" font-weight="700"><tspan x="0" y="17">Microbiológicos: </tspan><tspan font-family="SegoeUI, Segoe UI" font-weight="400"><tspan x="0" y="41">Coliformes fecales, Coliformes totales.</tspan></tspan></text>
    </g>
    <g id="Sintesis-8" data-name="Sintesis" transform="translate(781.075 3235)">
      <rect id="Rectángulo_404651-8" data-name="Rectángulo 404651" width="401" height="103" fill="#d1e6ff"/>
      <text id="Químicas:_Materia_orgánica_N_y_C_total_pH_conductividad_NPK" data-name="Químicas:
Materia orgánica (N y C total), pH, conductividad, NPK" transform="translate(18 18)" fill="#12263f" font-size="16" font-family="SegoeUI-Bold, Segoe UI" font-weight="700"><tspan x="0" y="17">Químicas:</tspan><tspan y="17" font-family="SegoeUI, Segoe UI" font-weight="400"></tspan><tspan font-family="SegoeUI, Segoe UI" font-weight="400"><tspan x="0" y="41">Materia orgánica (N y C total), pH, conductividad, </tspan><tspan x="0" y="65">NPK</tspan></tspan></text>
    </g>
    <rect id="Rectángulo_404651-9" data-name="Rectángulo 404651" width="125" height="79" transform="translate(606.075 2894)" fill="#65a532"/>
    <path id="Trazado_989596" data-name="Trazado 989596" d="M14.27,16.6a7.388,7.388,0,0,1-3.2.594A5.4,5.4,0,0,1,7.012,15.68a5.54,5.54,0,0,1-1.477-4.039A5.919,5.919,0,0,1,7.2,7.281,5.807,5.807,0,0,1,11.5,5.609a8.058,8.058,0,0,1,2.766.414v2.43a4.9,4.9,0,0,0-2.562-.672,3.4,3.4,0,0,0-2.547.992,3.682,3.682,0,0,0-.969,2.688,3.611,3.611,0,0,0,.914,2.59,3.229,3.229,0,0,0,2.461.965,5.249,5.249,0,0,0,2.7-.719Zm8.367.4H20.3V15.852H20.27A2.607,2.607,0,0,1,17.887,17.2a2.492,2.492,0,0,1-1.832-.66,2.366,2.366,0,0,1-.668-1.762q0-2.328,2.758-2.687l2.172-.289q0-1.312-1.422-1.312a4.853,4.853,0,0,0-2.719.852V9.477a6.116,6.116,0,0,1,1.41-.469,7.413,7.413,0,0,1,1.629-.2q3.422,0,3.422,3.414Zm-2.32-3.25v-.539l-1.453.188q-1.2.156-1.2,1.086a.9.9,0,0,0,.293.691,1.126,1.126,0,0,0,.793.27,1.462,1.462,0,0,0,1.133-.48A1.735,1.735,0,0,0,20.316,13.75ZM27.059,17H24.59V5.156h2.469Zm3.328-9.266a1.442,1.442,0,0,1-1.023-.371,1.2,1.2,0,0,1-.4-.91,1.153,1.153,0,0,1,.4-.906,1.671,1.671,0,0,1,2.051,0,1.158,1.158,0,0,1,.395.906,1.191,1.191,0,0,1-.395.922A1.466,1.466,0,0,1,30.387,7.734ZM31.605,17H29.137V9h2.469Zm9.906,0H39.043V15.9h-.031a2.768,2.768,0,0,1-2.477,1.3,3.033,3.033,0,0,1-2.414-1.059,4.382,4.382,0,0,1-.914-2.957A4.77,4.77,0,0,1,34.215,10a3.287,3.287,0,0,1,2.641-1.2,2.246,2.246,0,0,1,2.156,1.109h.031V5.156h2.469ZM39.09,13.109v-.6a1.893,1.893,0,0,0-.453-1.3,1.6,1.6,0,0,0-2.461.129,2.993,2.993,0,0,0-.461,1.77,2.59,2.59,0,0,0,.445,1.625,1.581,1.581,0,0,0,2.457-.031A2.507,2.507,0,0,0,39.09,13.109ZM50.246,17H47.91V15.852h-.031A2.607,2.607,0,0,1,45.5,17.2a2.492,2.492,0,0,1-1.832-.66A2.366,2.366,0,0,1,43,14.773q0-2.328,2.758-2.687l2.172-.289q0-1.312-1.422-1.312a4.853,4.853,0,0,0-2.719.852V9.477a6.116,6.116,0,0,1,1.41-.469,7.413,7.413,0,0,1,1.629-.2q3.422,0,3.422,3.414Zm-2.32-3.25v-.539l-1.453.188q-1.2.156-1.2,1.086a.9.9,0,0,0,.293.691,1.126,1.126,0,0,0,.793.27,1.462,1.462,0,0,0,1.133-.48A1.735,1.735,0,0,0,47.926,13.75ZM60.027,17H57.559V15.9h-.031a2.768,2.768,0,0,1-2.477,1.3,3.033,3.033,0,0,1-2.414-1.059,4.382,4.382,0,0,1-.914-2.957A4.77,4.77,0,0,1,52.73,10a3.287,3.287,0,0,1,2.641-1.2,2.246,2.246,0,0,1,2.156,1.109h.031V5.156h2.469Zm-2.422-3.891v-.6a1.893,1.893,0,0,0-.453-1.3,1.6,1.6,0,0,0-2.461.129,2.993,2.993,0,0,0-.461,1.77,2.59,2.59,0,0,0,.445,1.625,1.581,1.581,0,0,0,2.457-.031A2.507,2.507,0,0,0,57.605,13.109ZM74.348,17H71.879V15.9h-.031a2.768,2.768,0,0,1-2.477,1.3,3.033,3.033,0,0,1-2.414-1.059,4.382,4.382,0,0,1-.914-2.957A4.77,4.77,0,0,1,67.051,10a3.287,3.287,0,0,1,2.641-1.2,2.246,2.246,0,0,1,2.156,1.109h.031V5.156h2.469Zm-2.422-3.891v-.6a1.893,1.893,0,0,0-.453-1.3,1.6,1.6,0,0,0-2.461.129,2.993,2.993,0,0,0-.461,1.77A2.59,2.59,0,0,0,69,14.734a1.581,1.581,0,0,0,2.457-.031A2.507,2.507,0,0,0,71.926,13.109Zm11.688.594H78.395q.125,1.742,2.2,1.742a4.286,4.286,0,0,0,2.32-.625V16.6a6.1,6.1,0,0,1-2.883.594,4.058,4.058,0,0,1-3.008-1.074,4.058,4.058,0,0,1-1.07-3,4.281,4.281,0,0,1,1.156-3.156A3.852,3.852,0,0,1,79.949,8.8a3.5,3.5,0,0,1,2.707,1.039,4,4,0,0,1,.957,2.82Zm-2.289-1.516q0-1.719-1.391-1.719a1.328,1.328,0,0,0-1.027.492,2.234,2.234,0,0,0-.527,1.227ZM33.793,41H31.457V39.852h-.031A2.607,2.607,0,0,1,29.043,41.2a2.492,2.492,0,0,1-1.832-.66,2.366,2.366,0,0,1-.668-1.762q0-2.328,2.758-2.687l2.172-.289q0-1.312-1.422-1.312a4.853,4.853,0,0,0-2.719.852V33.477a6.117,6.117,0,0,1,1.41-.469,7.413,7.413,0,0,1,1.629-.2q3.422,0,3.422,3.414Zm-2.32-3.25v-.539L30.02,37.4q-1.2.156-1.2,1.086a.9.9,0,0,0,.293.691,1.126,1.126,0,0,0,.793.27,1.462,1.462,0,0,0,1.133-.48A1.735,1.735,0,0,0,31.473,37.75ZM43.59,40.086A4.526,4.526,0,0,1,42.3,43.535a5.224,5.224,0,0,1-3.734,1.223A5.919,5.919,0,0,1,36,44.3V42.219a4.907,4.907,0,0,0,2.492.719,2.684,2.684,0,0,0,1.938-.66,2.369,2.369,0,0,0,.688-1.793v-.633H41.09A2.757,2.757,0,0,1,38.6,41.2a3,3,0,0,1-2.43-1.078,4.372,4.372,0,0,1-.9-2.891,4.87,4.87,0,0,1,1-3.227A3.265,3.265,0,0,1,38.9,32.8,2.429,2.429,0,0,1,41.09,33.93h.031V33H43.59Zm-2.437-2.93v-.633A1.945,1.945,0,0,0,40.7,35.23a1.453,1.453,0,0,0-1.168-.535,1.51,1.51,0,0,0-1.289.641,3.012,3.012,0,0,0-.469,1.8,2.543,2.543,0,0,0,.445,1.582,1.451,1.451,0,0,0,1.219.582,1.511,1.511,0,0,0,1.238-.59A2.418,2.418,0,0,0,41.152,37.156ZM53.254,41H50.793V39.781h-.039A2.792,2.792,0,0,1,48.309,41.2q-2.781,0-2.781-3.367V33h2.461v4.609q0,1.7,1.344,1.7a1.329,1.329,0,0,0,1.063-.465,1.874,1.874,0,0,0,.4-1.262V33h2.461Zm8.734,0H59.652V39.852h-.031A2.607,2.607,0,0,1,57.238,41.2a2.492,2.492,0,0,1-1.832-.66,2.366,2.366,0,0,1-.668-1.762q0-2.328,2.758-2.687l2.172-.289q0-1.312-1.422-1.312a4.853,4.853,0,0,0-2.719.852V33.477a6.116,6.116,0,0,1,1.41-.469,7.413,7.413,0,0,1,1.629-.2q3.422,0,3.422,3.414Zm-2.32-3.25v-.539l-1.453.188q-1.2.156-1.2,1.086a.9.9,0,0,0,.293.691,1.126,1.126,0,0,0,.793.27,1.462,1.462,0,0,0,1.133-.48A1.735,1.735,0,0,0,59.668,37.75Z" transform="translate(624.075 2912)" fill="#12263f"/>
    <rect id="Rectángulo_404651-10" data-name="Rectángulo 404651" width="125" height="79" transform="translate(606.075 3364)" fill="#65a532"/>
    <path id="Trazado_989598" data-name="Trazado 989598" d="M12,16.6a7.388,7.388,0,0,1-3.2.594A5.4,5.4,0,0,1,4.738,15.68a5.54,5.54,0,0,1-1.477-4.039,5.919,5.919,0,0,1,1.66-4.359A5.807,5.807,0,0,1,9.23,5.609,8.058,8.058,0,0,1,12,6.023v2.43a4.9,4.9,0,0,0-2.562-.672,3.4,3.4,0,0,0-2.547.992,3.682,3.682,0,0,0-.969,2.688,3.611,3.611,0,0,0,.914,2.59,3.229,3.229,0,0,0,2.461.965A5.249,5.249,0,0,0,12,14.3Zm8.367.4H18.027V15.852H18A2.607,2.607,0,0,1,15.613,17.2a2.492,2.492,0,0,1-1.832-.66,2.366,2.366,0,0,1-.668-1.762q0-2.328,2.758-2.687l2.172-.289q0-1.312-1.422-1.312a4.853,4.853,0,0,0-2.719.852V9.477a6.116,6.116,0,0,1,1.41-.469,7.413,7.413,0,0,1,1.629-.2q3.422,0,3.422,3.414Zm-2.32-3.25v-.539L16.59,13.4q-1.2.156-1.2,1.086a.9.9,0,0,0,.293.691,1.126,1.126,0,0,0,.793.27,1.462,1.462,0,0,0,1.133-.48A1.735,1.735,0,0,0,18.043,13.75ZM24.785,17H22.316V5.156h2.469Zm3.328-9.266a1.442,1.442,0,0,1-1.023-.371,1.2,1.2,0,0,1-.4-.91,1.153,1.153,0,0,1,.4-.906,1.671,1.671,0,0,1,2.051,0,1.158,1.158,0,0,1,.395.906,1.191,1.191,0,0,1-.395.922A1.466,1.466,0,0,1,28.113,7.734ZM29.332,17H26.863V9h2.469Zm9.906,0H36.77V15.9h-.031a2.768,2.768,0,0,1-2.477,1.3,3.033,3.033,0,0,1-2.414-1.059,4.382,4.382,0,0,1-.914-2.957A4.77,4.77,0,0,1,31.941,10a3.287,3.287,0,0,1,2.641-1.2,2.246,2.246,0,0,1,2.156,1.109h.031V5.156h2.469Zm-2.422-3.891v-.6a1.893,1.893,0,0,0-.453-1.3,1.6,1.6,0,0,0-2.461.129,2.993,2.993,0,0,0-.461,1.77,2.59,2.59,0,0,0,.445,1.625,1.581,1.581,0,0,0,2.457-.031A2.507,2.507,0,0,0,36.816,13.109ZM47.973,17H45.637V15.852h-.031A2.607,2.607,0,0,1,43.223,17.2a2.492,2.492,0,0,1-1.832-.66,2.366,2.366,0,0,1-.668-1.762q0-2.328,2.758-2.687l2.172-.289q0-1.312-1.422-1.312a4.853,4.853,0,0,0-2.719.852V9.477a6.116,6.116,0,0,1,1.41-.469,7.413,7.413,0,0,1,1.629-.2q3.422,0,3.422,3.414Zm-2.32-3.25v-.539L44.2,13.4q-1.2.156-1.2,1.086a.9.9,0,0,0,.293.691,1.126,1.126,0,0,0,.793.27,1.462,1.462,0,0,0,1.133-.48A1.735,1.735,0,0,0,45.652,13.75ZM57.754,17H55.285V15.9h-.031a2.768,2.768,0,0,1-2.477,1.3,3.033,3.033,0,0,1-2.414-1.059,4.382,4.382,0,0,1-.914-2.957A4.77,4.77,0,0,1,50.457,10,3.287,3.287,0,0,1,53.1,8.8a2.246,2.246,0,0,1,2.156,1.109h.031V5.156h2.469Zm-2.422-3.891v-.6a1.893,1.893,0,0,0-.453-1.3,1.6,1.6,0,0,0-2.461.129,2.993,2.993,0,0,0-.461,1.77,2.59,2.59,0,0,0,.445,1.625,1.581,1.581,0,0,0,2.457-.031A2.507,2.507,0,0,0,55.332,13.109ZM72.074,17H69.605V15.9h-.031A2.768,2.768,0,0,1,67.1,17.2a3.033,3.033,0,0,1-2.414-1.059,4.382,4.382,0,0,1-.914-2.957A4.77,4.77,0,0,1,64.777,10a3.287,3.287,0,0,1,2.641-1.2,2.246,2.246,0,0,1,2.156,1.109h.031V5.156h2.469Zm-2.422-3.891v-.6a1.893,1.893,0,0,0-.453-1.3,1.6,1.6,0,0,0-2.461.129,2.993,2.993,0,0,0-.461,1.77,2.59,2.59,0,0,0,.445,1.625A1.581,1.581,0,0,0,69.18,14.7,2.507,2.507,0,0,0,69.652,13.109ZM81.34,13.7H76.121q.125,1.742,2.2,1.742a4.286,4.286,0,0,0,2.32-.625V16.6a6.1,6.1,0,0,1-2.883.594,4.058,4.058,0,0,1-3.008-1.074,4.058,4.058,0,0,1-1.07-3,4.281,4.281,0,0,1,1.156-3.156A3.852,3.852,0,0,1,77.676,8.8a3.5,3.5,0,0,1,2.707,1.039,4,4,0,0,1,.957,2.82Zm-2.289-1.516q0-1.719-1.391-1.719a1.328,1.328,0,0,0-1.027.492,2.234,2.234,0,0,0-.527,1.227ZM85.277,17H82.809V5.156h2.469ZM25.164,40.789v-2a5.256,5.256,0,0,0,1.215.547,4.028,4.028,0,0,0,1.145.18,2.455,2.455,0,0,0,1.035-.18.581.581,0,0,0,.379-.547.506.506,0,0,0-.172-.391,1.6,1.6,0,0,0-.441-.273,5.009,5.009,0,0,0-.59-.211q-.32-.094-.617-.211a5.914,5.914,0,0,1-.84-.387,2.427,2.427,0,0,1-.609-.48,1.889,1.889,0,0,1-.375-.633,2.525,2.525,0,0,1-.129-.852,2.192,2.192,0,0,1,.293-1.156,2.393,2.393,0,0,1,.781-.793,3.57,3.57,0,0,1,1.117-.453,5.825,5.825,0,0,1,1.309-.145,7.261,7.261,0,0,1,1.078.082,8.047,8.047,0,0,1,1.078.238v1.906a3.9,3.9,0,0,0-1-.41,4.235,4.235,0,0,0-1.051-.137,2.328,2.328,0,0,0-.457.043,1.505,1.505,0,0,0-.379.125.7.7,0,0,0-.258.211.486.486,0,0,0-.094.293.541.541,0,0,0,.141.375,1.221,1.221,0,0,0,.367.27,3.625,3.625,0,0,0,.5.2q.277.09.551.184a7.161,7.161,0,0,1,.891.375,2.848,2.848,0,0,1,.684.477,1.871,1.871,0,0,1,.438.641A2.563,2.563,0,0,1,31,39.77a2.471,2.471,0,0,1-.82.82,3.72,3.72,0,0,1-1.18.461,6.54,6.54,0,0,1-1.387.145A7.149,7.149,0,0,1,25.164,40.789ZM40.328,41H37.867V39.781h-.039A2.792,2.792,0,0,1,35.383,41.2q-2.781,0-2.781-3.367V33h2.461v4.609q0,1.7,1.344,1.7a1.329,1.329,0,0,0,1.063-.465,1.874,1.874,0,0,0,.4-1.262V33h2.461Zm9.266-3.3H44.375q.125,1.742,2.2,1.742a4.286,4.286,0,0,0,2.32-.625V40.6a6.1,6.1,0,0,1-2.883.594,3.724,3.724,0,0,1-4.078-4.07,4.281,4.281,0,0,1,1.156-3.156A3.852,3.852,0,0,1,45.93,32.8a3.5,3.5,0,0,1,2.707,1.039,4,4,0,0,1,.957,2.82ZM47.3,36.188q0-1.719-1.391-1.719a1.328,1.328,0,0,0-1.027.492,2.234,2.234,0,0,0-.527,1.227ZM53.531,41H51.063V29.156h2.469Zm5.891.2a4.3,4.3,0,0,1-3.145-1.121,4.064,4.064,0,0,1-1.145-3.043,4.065,4.065,0,0,1,1.188-3.105A4.487,4.487,0,0,1,59.531,32.8a4.249,4.249,0,0,1,3.125,1.121,3.985,3.985,0,0,1,1.133,2.965,4.23,4.23,0,0,1-1.168,3.148A4.348,4.348,0,0,1,59.422,41.2Zm.063-6.5a1.647,1.647,0,0,0-1.359.6,2.653,2.653,0,0,0-.484,1.7q0,2.3,1.859,2.3,1.773,0,1.773-2.367Q61.273,34.7,59.484,34.7Z" transform="translate(624.075 3382)" fill="#12263f"/>
    <line id="Línea_571" data-name="Línea 571" x2="66" transform="translate(522.778 3201.5)" fill="none" stroke="#12263f" stroke-width="1"/>
    <rect id="Rectángulo_404651-11" data-name="Rectángulo 404651" width="134" height="79" transform="translate(418.075 3162)" fill="#f3d82a"/>
    <path id="Trazado_989597" data-name="Trazado 989597" d="M25.7,5.8,21.836,17H18.977L15.164,5.8h2.719l2.336,7.8a5.584,5.584,0,0,1,.227,1.117h.047a6.315,6.315,0,0,1,.242-1.148L23.055,5.8ZM32.25,17H29.914V15.852h-.031A2.607,2.607,0,0,1,27.5,17.2a2.492,2.492,0,0,1-1.832-.66A2.366,2.366,0,0,1,25,14.773q0-2.328,2.758-2.687L29.93,11.8q0-1.312-1.422-1.312a4.853,4.853,0,0,0-2.719.852V9.477a6.116,6.116,0,0,1,1.41-.469,7.413,7.413,0,0,1,1.629-.2q3.422,0,3.422,3.414Zm-2.32-3.25v-.539l-1.453.188q-1.2.156-1.2,1.086a.9.9,0,0,0,.293.691,1.126,1.126,0,0,0,.793.27,1.462,1.462,0,0,0,1.133-.48A1.735,1.735,0,0,0,29.93,13.75Zm9.492-2.523a2.142,2.142,0,0,0-1.039-.242,1.5,1.5,0,0,0-1.258.59,2.573,2.573,0,0,0-.453,1.605V17H34.2V9h2.469v1.484H36.7a2.136,2.136,0,0,1,2.109-1.625,1.59,1.59,0,0,1,.609.094Zm2.461-3.492a1.442,1.442,0,0,1-1.023-.371,1.2,1.2,0,0,1-.4-.91,1.153,1.153,0,0,1,.4-.906,1.671,1.671,0,0,1,2.051,0,1.158,1.158,0,0,1,.395.906,1.191,1.191,0,0,1-.395.922A1.466,1.466,0,0,1,41.883,7.734ZM43.1,17H40.633V9H43.1Zm8.734,0H49.5V15.852h-.031A2.607,2.607,0,0,1,47.086,17.2a2.492,2.492,0,0,1-1.832-.66,2.366,2.366,0,0,1-.668-1.762q0-2.328,2.758-2.687l2.172-.289q0-1.312-1.422-1.312a4.853,4.853,0,0,0-2.719.852V9.477a6.116,6.116,0,0,1,1.41-.469,7.413,7.413,0,0,1,1.629-.2q3.422,0,3.422,3.414Zm-2.32-3.25v-.539l-1.453.188q-1.2.156-1.2,1.086a.9.9,0,0,0,.293.691,1.126,1.126,0,0,0,.793.27,1.462,1.462,0,0,0,1.133-.48A1.735,1.735,0,0,0,49.516,13.75Zm6.773,2.32h-.031V17H53.789V5.156h2.469V10.2h.031a2.929,2.929,0,0,1,2.6-1.4,2.855,2.855,0,0,1,2.383,1.063,4.582,4.582,0,0,1,.836,2.906,4.962,4.962,0,0,1-.977,3.211A3.181,3.181,0,0,1,58.523,17.2,2.521,2.521,0,0,1,56.289,16.07Zm-.07-3.375v.82a1.872,1.872,0,0,0,.445,1.281A1.449,1.449,0,0,0,57.8,15.3a1.514,1.514,0,0,0,1.309-.652,3.15,3.15,0,0,0,.465-1.848,2.506,2.506,0,0,0-.426-1.551,1.437,1.437,0,0,0-1.215-.559,1.569,1.569,0,0,0-1.23.555A2.107,2.107,0,0,0,56.219,12.7ZM66.18,17H63.711V5.156H66.18Zm9.266-3.3H70.227q.125,1.742,2.2,1.742a4.286,4.286,0,0,0,2.32-.625V16.6a6.1,6.1,0,0,1-2.883.594,4.058,4.058,0,0,1-3.008-1.074,4.058,4.058,0,0,1-1.07-3,4.281,4.281,0,0,1,1.156-3.156A3.852,3.852,0,0,1,71.781,8.8a3.5,3.5,0,0,1,2.707,1.039,4,4,0,0,1,.957,2.82Zm-2.289-1.516q0-1.719-1.391-1.719a1.328,1.328,0,0,0-1.027.492,2.234,2.234,0,0,0-.527,1.227Zm3.234,4.6v-2a5.256,5.256,0,0,0,1.215.547,4.028,4.028,0,0,0,1.145.18,2.455,2.455,0,0,0,1.035-.18.581.581,0,0,0,.379-.547.506.506,0,0,0-.172-.391,1.6,1.6,0,0,0-.441-.273,5.009,5.009,0,0,0-.59-.211q-.32-.094-.617-.211a5.913,5.913,0,0,1-.84-.387,2.427,2.427,0,0,1-.609-.48,1.889,1.889,0,0,1-.375-.633,2.525,2.525,0,0,1-.129-.852,2.192,2.192,0,0,1,.293-1.156,2.393,2.393,0,0,1,.781-.793,3.57,3.57,0,0,1,1.117-.453A5.825,5.825,0,0,1,79.891,8.8a7.261,7.261,0,0,1,1.078.082,8.047,8.047,0,0,1,1.078.238v1.906a3.9,3.9,0,0,0-1-.41,4.235,4.235,0,0,0-1.051-.137,2.328,2.328,0,0,0-.457.043,1.505,1.505,0,0,0-.379.125.7.7,0,0,0-.258.211.486.486,0,0,0-.094.293.541.541,0,0,0,.141.375,1.221,1.221,0,0,0,.367.27,3.625,3.625,0,0,0,.5.2q.277.09.551.184a7.161,7.161,0,0,1,.891.375,2.848,2.848,0,0,1,.684.477,1.872,1.872,0,0,1,.438.641,2.563,2.563,0,0,1-.156,2.09,2.471,2.471,0,0,1-.82.82,3.72,3.72,0,0,1-1.18.461,6.54,6.54,0,0,1-1.387.145A7.149,7.149,0,0,1,76.391,16.789ZM11.121,41H8.785V39.852H8.754A2.607,2.607,0,0,1,6.371,41.2a2.492,2.492,0,0,1-1.832-.66,2.366,2.366,0,0,1-.668-1.762q0-2.328,2.758-2.687L8.8,35.8q0-1.312-1.422-1.312a4.853,4.853,0,0,0-2.719.852V33.477a6.117,6.117,0,0,1,1.41-.469A7.413,7.413,0,0,1,7.7,32.8q3.422,0,3.422,3.414ZM8.8,37.75v-.539L7.348,37.4q-1.2.156-1.2,1.086a.9.9,0,0,0,.293.691,1.126,1.126,0,0,0,.793.27,1.462,1.462,0,0,0,1.133-.48A1.735,1.735,0,0,0,8.8,37.75ZM25.777,41H23.316V36.438q0-1.742-1.281-1.742a1.177,1.177,0,0,0-.992.523,2.151,2.151,0,0,0-.383,1.3V41H18.191V36.391q0-1.7-1.258-1.7a1.206,1.206,0,0,0-1.012.5,2.2,2.2,0,0,0-.379,1.359V41H13.074V33h2.469v1.25h.031A3.031,3.031,0,0,1,18.16,32.8,2.3,2.3,0,0,1,20.48,34.3,2.959,2.959,0,0,1,23.168,32.8q2.609,0,2.609,3.219Zm4.453-.93H30.2V41H27.73V29.156H30.2V34.2h.031a2.929,2.929,0,0,1,2.6-1.4,2.855,2.855,0,0,1,2.383,1.063,4.582,4.582,0,0,1,.836,2.906,4.962,4.962,0,0,1-.977,3.211A3.181,3.181,0,0,1,32.465,41.2,2.521,2.521,0,0,1,30.23,40.07ZM30.16,36.7v.82a1.872,1.872,0,0,0,.445,1.281,1.449,1.449,0,0,0,1.141.508,1.514,1.514,0,0,0,1.309-.652A3.15,3.15,0,0,0,33.52,36.8a2.506,2.506,0,0,0-.426-1.551,1.437,1.437,0,0,0-1.215-.559,1.569,1.569,0,0,0-1.23.555A2.107,2.107,0,0,0,30.16,36.7ZM38.9,31.734a1.442,1.442,0,0,1-1.023-.371,1.2,1.2,0,0,1-.4-.91,1.153,1.153,0,0,1,.4-.906,1.671,1.671,0,0,1,2.051,0,1.158,1.158,0,0,1,.395.906,1.191,1.191,0,0,1-.395.922A1.466,1.466,0,0,1,38.9,31.734ZM40.121,41H37.652V33h2.469Zm9.266-3.3H44.168q.125,1.742,2.2,1.742a4.286,4.286,0,0,0,2.32-.625V40.6A6.1,6.1,0,0,1,45.8,41.2a3.724,3.724,0,0,1-4.078-4.07,4.281,4.281,0,0,1,1.156-3.156A3.852,3.852,0,0,1,45.723,32.8a3.5,3.5,0,0,1,2.707,1.039,4,4,0,0,1,.957,2.82ZM47.1,36.188q0-1.719-1.391-1.719a1.328,1.328,0,0,0-1.027.492,2.234,2.234,0,0,0-.527,1.227ZM58.582,41H56.121V36.555q0-1.859-1.328-1.859a1.318,1.318,0,0,0-1.055.492,1.875,1.875,0,0,0-.414,1.25V41H50.855V33h2.469v1.266h.031a2.829,2.829,0,0,1,2.57-1.461q2.656,0,2.656,3.3Zm6.789-.094a3.649,3.649,0,0,1-1.648.289q-2.609,0-2.609-2.711V34.82h-1.3V33h1.3V31.273l2.461-.7V33h1.8v1.82h-1.8v3.234q0,1.25.992,1.25a1.673,1.673,0,0,0,.8-.227ZM73.418,41H71.082V39.852h-.031A2.607,2.607,0,0,1,68.668,41.2a2.492,2.492,0,0,1-1.832-.66,2.366,2.366,0,0,1-.668-1.762q0-2.328,2.758-2.687L71.1,35.8q0-1.312-1.422-1.312a4.853,4.853,0,0,0-2.719.852V33.477a6.117,6.117,0,0,1,1.41-.469A7.413,7.413,0,0,1,70,32.8q3.422,0,3.422,3.414ZM71.1,37.75v-.539l-1.453.188q-1.2.156-1.2,1.086a.9.9,0,0,0,.293.691,1.126,1.126,0,0,0,.793.27,1.462,1.462,0,0,0,1.133-.48A1.735,1.735,0,0,0,71.1,37.75ZM77.84,41H75.371V29.156H77.84Zm9.266-3.3H81.887q.125,1.742,2.2,1.742a4.286,4.286,0,0,0,2.32-.625V40.6a6.1,6.1,0,0,1-2.883.594,3.724,3.724,0,0,1-4.078-4.07A4.281,4.281,0,0,1,80.6,33.969,3.852,3.852,0,0,1,83.441,32.8a3.5,3.5,0,0,1,2.707,1.039,4,4,0,0,1,.957,2.82Zm-2.289-1.516q0-1.719-1.391-1.719a1.328,1.328,0,0,0-1.027.492,2.234,2.234,0,0,0-.527,1.227Zm3.234,4.6v-2a5.256,5.256,0,0,0,1.215.547,4.028,4.028,0,0,0,1.145.18,2.455,2.455,0,0,0,1.035-.18.581.581,0,0,0,.379-.547.506.506,0,0,0-.172-.391,1.6,1.6,0,0,0-.441-.273,5.009,5.009,0,0,0-.59-.211Q90.3,37.82,90,37.7a5.914,5.914,0,0,1-.84-.387,2.427,2.427,0,0,1-.609-.48,1.889,1.889,0,0,1-.375-.633,2.525,2.525,0,0,1-.129-.852,2.192,2.192,0,0,1,.293-1.156,2.393,2.393,0,0,1,.781-.793,3.57,3.57,0,0,1,1.117-.453,5.825,5.825,0,0,1,1.309-.145,7.261,7.261,0,0,1,1.078.082,8.046,8.046,0,0,1,1.078.238v1.906a3.9,3.9,0,0,0-1-.41,4.235,4.235,0,0,0-1.051-.137,2.328,2.328,0,0,0-.457.043,1.505,1.505,0,0,0-.379.125.7.7,0,0,0-.258.211.486.486,0,0,0-.094.293.541.541,0,0,0,.141.375,1.221,1.221,0,0,0,.367.27,3.625,3.625,0,0,0,.5.2q.277.09.551.184a7.161,7.161,0,0,1,.891.375,2.848,2.848,0,0,1,.684.477,1.872,1.872,0,0,1,.438.641,2.563,2.563,0,0,1-.156,2.09,2.471,2.471,0,0,1-.82.82,3.72,3.72,0,0,1-1.18.461A6.54,6.54,0,0,1,90.5,41.2,7.149,7.149,0,0,1,88.051,40.789Z" transform="translate(436.075 3180)" fill="#12263f"/>
  </g>
</svg>
