<svg xmlns="http://www.w3.org/2000/svg" width="13.128" height="11.672" viewBox="0 0 13.128 11.672">
  <path id="leaf-solid" d="M12.5.2a.355.355,0,0,0-.645-.027A3.909,3.909,0,0,1,8.442,2.165H6.618A4.378,4.378,0,0,0,2.242,6.541a4.507,4.507,0,0,0,.034.467,10.905,10.905,0,0,1,6.53-1.926.365.365,0,0,1,0,.729c-5.73,0-8.16,3.513-8.7,4.832A.73.73,0,0,0,1.46,11.2,6,6,0,0,1,3.1,9.133a4.367,4.367,0,0,0,3.987,1.76c3.579-.26,6.1-3.469,6.1-7.4A8.289,8.289,0,0,0,12.5.2Z" transform="translate(-0.055 0.024)" fill="#f3d82a"/>
</svg>
